<svg xmlns="http://www.w3.org/2000/svg" xmlns:xlink="http://www.w3.org/1999/xlink" width="208" height="135" viewBox="0 0 208 135">
  <defs>
    <clipPath id="clip-path">
      <rect id="Rectangle_5" data-name="Rectangle 5" width="208" height="135" transform="translate(133 2909.39)" fill="#495057"/>
    </clipPath>
  </defs>
  <g id="Mask_Group_4" data-name="Mask Group 4" transform="translate(-133 -2909.39)" clip-path="url(#clip-path)">
    <path id="iconmonstr-school-28" d="M40.5,23.267H33.75V13.5H162v108H109.816l18.434,27H119.4l-18.468-27H87.75l-18.468,27H60.75l18.441-27H60.75v-6.75h54V108H135v6.75h20.25V20.25H40.5ZM55.634,140.333a8.448,8.448,0,0,1-8.478,8.167,8.642,8.642,0,0,1-8.465-7.8l-2.741-27.23L33.811,140.6a8.585,8.585,0,0,1-8.485,7.9,8.489,8.489,0,0,1-8.519-8.168L15.039,96.754,12.96,100.5a7.046,7.046,0,0,1-8.539,3.1A6.875,6.875,0,0,1,0,97.18a6.968,6.968,0,0,1,.263-1.91L7.918,67.608a9.507,9.507,0,0,1,9.119-6.892H44.685a19.225,19.225,0,0,0,8.674-2.227c4.88-2.72,16.463-9.241,21.168-12.1a6.571,6.571,0,0,1,8.37,1.465,6.433,6.433,0,0,1-.5,8.755L61.823,76.221a13.6,13.6,0,0,0-4.165,9.322c-.412,9.43-2.025,54.79-2.025,54.79Zm-38.6-72.866a2.74,2.74,0,0,0-2.626,1.984C12.42,76.471,7.587,94.2,6.757,97.112l10.2-17.5a2.307,2.307,0,0,1,4.293,1.066l2.3,59.38c.068,1.876,3.375,1.937,3.53.014,0,0,1.816-22.613,2.079-26.622.277-4.043,3.031-6.865,6.7-6.865,3.692.014,6.534,2.8,6.946,6.777.243,2.356,2.207,23.078,2.6,26.582a1.747,1.747,0,0,0,3.49.148S50.5,94.7,50.915,85.253a20.3,20.3,0,0,1,6.244-13.912l20.554-19.6C73.251,55.06,61.56,61.648,56.646,64.382a26.067,26.067,0,0,1-11.961,3.085H17.037ZM128.25,74.25H94.5V67.5h33.75Zm13.5-13.5H94.5V54h47.25ZM35.593,27.041A15.633,15.633,0,1,0,51.226,42.674,15.637,15.637,0,0,0,35.593,27.041Zm0,6.75a8.883,8.883,0,1,1-8.876,8.883A8.89,8.89,0,0,1,35.593,33.791ZM141.75,47.25H94.5V40.5h47.25Z" transform="translate(156 2895.89)" fill="#495057" fill-rule="evenodd"/>
  </g>
</svg>
