<svg xmlns="http://www.w3.org/2000/svg" xmlns:xlink="http://www.w3.org/1999/xlink" width="208" height="135" viewBox="0 0 208 135">
  <defs>
    <clipPath id="clip-path">
      <rect id="Rectangle_5" data-name="Rectangle 5" width="208" height="135" transform="translate(465 2092)" fill="#495057"/>
    </clipPath>
  </defs>
  <g id="Mask_Group_3" data-name="Mask Group 3" transform="translate(-465 -2092)" clip-path="url(#clip-path)">
    <path id="iconmonstr-friend-2" d="M95.586,78.756h11.25v11.25h5.625V78.756h11.25V73.131h-11.25V61.881h-5.625v11.25H95.586v5.625Zm25.791,48.4c-3.583-5.957-8.826-14.766-12.116-20.289a31.009,31.009,0,0,1-8.381-1.266l-.968,23.681H35.437l-1.592-35s-15.187,23.484-20.391,32.9c-2.368,4.326-9.1,1.491-7.689-3.083,3.42-10.98,10.957-35.528,15.013-49.832a9.291,9.291,0,0,1,8.91-6.722h56.2a24.99,24.99,0,0,0-1.541,8.4,25.34,25.34,0,0,0,25.324,25.318,25.043,25.043,0,0,0,11.813-3.06c3.347,11.351,6.756,22.86,7.6,25.853a4.179,4.179,0,0,1-7.712,3.1m-11.706-70.9a19.688,19.688,0,1,1-19.7,19.687,19.7,19.7,0,0,1,19.7-19.687m18.107,43.391-1.423-4.8a25.264,25.264,0,1,0-37.744-32.94H29.689A14.941,14.941,0,0,0,15.367,72.731C11.323,86.979,3.808,111.465.394,122.422A9.061,9.061,0,0,0,0,125.151c0,2.419,1.727,9.782,9.714,9.782a9.983,9.983,0,0,0,8.674-5.04c2.835-5.141,7.256-12.313,10.637-17.685l1.029,22.7h75.257l.911-22.146c3.2,5.377,7.346,12.324,10.327,17.28A10.106,10.106,0,0,0,125.122,135c3.566,0,9.759-2.8,9.759-9.793a10.106,10.106,0,0,0-.366-2.666c-1.637-5.749-4.134-14.153-6.739-22.894M67.584,0A28.263,28.263,0,1,0,95.867,28.26,28.283,28.283,0,0,0,67.584,0m0,5.625A22.638,22.638,0,1,1,44.938,28.26,22.67,22.67,0,0,1,67.584,5.625" transform="translate(501.5 2092)" fill="#495057" fill-rule="evenodd"/>
  </g>
</svg>
