<svg xmlns="http://www.w3.org/2000/svg" xmlns:xlink="http://www.w3.org/1999/xlink" width="208" height="135" viewBox="0 0 208 135">
  <defs>
    <clipPath id="clip-path">
      <rect id="Rectangle_5" data-name="Rectangle 5" width="208" height="135" transform="translate(848.164 1347.305)" fill="#495057"/>
    </clipPath>
  </defs>
  <g id="Mask_Group_1" data-name="Mask Group 1" transform="translate(-848.164 -1347.305)" clip-path="url(#clip-path)">
    <path id="iconmonstr-map-10" d="M37.123,75.772a17.9,17.9,0,0,1-6.176-1.1l2.3-6.244a11.257,11.257,0,0,0,8.137-.147l2.526,6.159a17.759,17.759,0,0,1-6.786,1.333Zm48.989-4.424-9.374-5.34,3.294-5.786,9.38,5.34Zm-36.473-.113L46.22,65.522l9.261-5.543L58.9,65.692Zm22.138-7.956a11.169,11.169,0,0,0-8.125-.192l-2.266-6.261a17.975,17.975,0,0,1,6.074-1.068,17.727,17.727,0,0,1,6.877,1.379l-2.56,6.142Zm-49.351-.921a5.47,5.47,0,1,0,5.475,5.47A5.472,5.472,0,0,0,22.427,62.358ZM99.137,22.6,67.805,0,36.473,22.6,0,0V113.008l36.473,22.6,31.332-22.6,31.332,22.6,36.473-22.6V0L99.137,22.6Zm25.173,84.118-22.6,14.007V96.057h-5.65v23.4l-22.6-16.3V79.106h-11.3v24.043l-22.6,16.3V90.407H33.9v30.315L11.3,106.714V20.3L33.9,34.3v16.55h5.65V34.315l22.6-16.307V39.553h11.3V18.008l22.6,16.307V45.2h5.65V34.3l22.6-14.007v86.423Zm-7.5-27.523L109.483,72l7.193-7.306-4-3.967-7.187,7.317-7.312-7.187L94.2,64.822l7.323,7.21-7.193,7.323,3.972,3.972,7.216-7.334,7.317,7.2,3.967-4Z" transform="translate(884.359 1347)" fill="#495057"/>
  </g>
</svg>
