<svg xmlns="http://www.w3.org/2000/svg" xmlns:xlink="http://www.w3.org/1999/xlink" width="31" height="31" viewBox="0 0 31 31">
  <defs>
    <clipPath id="clip-path">
      <rect id="Rectangle_10" data-name="Rectangle 10" width="31" height="31" transform="translate(1116.71 4419.71)" fill="#f03e3e" stroke="#707070" stroke-width="1"/>
    </clipPath>
  </defs>
  <g id="Mask_Group_5" data-name="Mask Group 5" transform="translate(-1116.71 -4419.71)" clip-path="url(#clip-path)">
    <path id="iconmonstr-help-3" d="M15.21,2.535A12.675,12.675,0,1,1,2.535,15.21,12.689,12.689,0,0,1,15.21,2.535ZM15.21,0A15.21,15.21,0,1,0,30.42,15.21,15.211,15.211,0,0,0,15.21,0Zm1.584,21.547a1.584,1.584,0,1,1-1.584-1.584A1.584,1.584,0,0,1,16.794,21.547ZM18.56,8.875a4.475,4.475,0,0,0-3.233-1.21c-2.763,0-4.55,1.965-4.55,5.007h2.549c0-1.884,1.051-2.551,1.949-2.551A1.675,1.675,0,0,1,17,11.674c.079,1.074-.494,1.619-1.219,2.308a4.667,4.667,0,0,0-1.815,4.4H16.51A3.34,3.34,0,0,1,17.7,15.617a5.678,5.678,0,0,0,1.947-3.83A3.968,3.968,0,0,0,18.56,8.875Z" transform="translate(1117 4420)" fill="#f03e3e"/>
  </g>
</svg>
